<svg height="216.42" viewBox="0 0 500 216.42" width="500" xmlns="http://www.w3.org/2000/svg"><g fill="#161413"><path d="m290.895 205.63h-5.053l-12.156-30.002h5.684l9.002 23.846 8.996-23.846h5.687zm-121.105-25.58-3.475 3.16c-2.208-2.688-5.052-4.105-8.682-4.105-6.476 0-11.213 4.736-11.213 11.367 0 6.635 4.737 11.843 11.527 11.843 3.158 0 5.841-1.265 8.367-3.159l-.157-8.366h-15l2.843-4.74h17.054v14.842c-3.79 3.318-7.737 5.527-12.949 5.527-9.156 0-16.579-6.631-16.579-15.947 0-9.315 7.263-15.789 16.264-15.789 5.052 0 8.842 1.579 12 5.367zm7.263 25.58v-30.002h27l-3.79 4.895h-17.841v5.056h17.841v5.05h-17.841v10.107h17.841l3.79 4.895h-27zm31.737 0v-30.002h3.947l20.052 20.845v-20.845h5.211v30.002h-3.473l-20.527-21.316v21.316zm42.314-34.897h5.684l3.318 2.688h-5.37zm-7.262 34.897v-30.002h27.001l-3.788 4.895h-17.845v5.056h17.844v5.05h-17.844v10.107h17.844l3.788 4.895h-27zm61.58 0v-30.002h26.998l-3.63 4.895h-17.999v5.056h17.999v5.05h-17.999v10.107h17.999l3.63 4.895h-26.998z"/><path d="m101.262 12.684h-5.998c-22.895-.158-79.895 4.58-79.895 38.052 0 16.894 17.526 23.999 32.208 23.999 2.054 0 4.265-.157 6.476-.314 10.895-14.053 23.841-26.525 38.685-36.474 14.368-9.792 38.052-23.052 56.051-23.052 4.422 0 9.948 3.158 9.948 8.052 0 16.262-34.58 37.578-48.473 43.421-13.739 5.841-29.054 9.789-43.896 11.682-8.367 11.845-18.79 26.371-18.79 41.371 0 5.208 4.265 8.051 9.159 8.051 20.055 0 50.212-18.156 50.212-40.577 0-4.104-3.158-6.315-6.948-6.315-14.843 0-31.107 14.21-37.895 26.682l-.947-.157c4.262-15.632 23.842-30.63 39.789-30.63 6.791 0 12.317 5.052 12.317 12 0 5.684-2.211 10.735-4.58 15.63 5.999-2.998 12-6.159 17.841-9.474l20.684-24.789 12.789-15.315c6.316-7.423 21.633-25.896 32.371-25.896 2.369 0 3.788 2.054 3.788 4.262 0 21.791-37.263 46.265-54.789 55.421l-2.211 2.843c6.473-2.843 12.949-6.316 20.052-6.316 3.475 0 7.105 2.369 7.105 6.159 0 2.211-.79 4.422-2.051 6.159l-19.58 27.788c-.315.472-.79 1.105-.79 1.736 0 .316.475.789.947.789 6.001 0 18.315-10.419 22.895-14.367 7.263-13.106 22.738-28.264 38.685-28.264 6.001 0 10.578 3.947 10.578 10.106 0 4.262-1.577 8.052-3.473 11.685 15.158-7.897 29.843-18.001 40.421-31.422l9.949-12.632 10.104.157-24 30.947c5.211-3.63 11.999-7.735 18.63-7.735 2.843 0 5.687 2.683 5.687 5.524 0 1.264-.631 2.528-1.265 3.632l-19.422 28.421c-.314.313-.472.79-.472 1.104 0 .789.632 1.265 1.264 1.265 7.422 0 15.629-7.894 21.314-12.316 8.999-12.946 23.054-28.736 40.263-28.736 5.525 0 9.947 2.843 12.001 7.895l4.577-6.473h10.105l-26.842 37.104c-.473.472-.79 1.262-.79 1.896 0 .947.79 1.262 1.579 1.262 10.422 0 34.579-29.841 38.528-39.79-1.264-.787-1.736-1.737-1.736-3.155 0-3.948 3.315-10.263 8.051-10.263 2.526 0 3.475 2.998 3.475 5.051 0 2.054-.476 3.947-1.106 6.001 3.316 0 10.895 0 10.895 4.894 0 1.894-.789 3.63-1.896 5.052l-18.79 27.471c-.628.791-1.262 1.897-1.262 3.001 0 .95.792 1.423 1.737 1.423 10.895 0 22.265-11.686 29.054-19.421 7.576-10.896 19.264-22.895 33.629-22.895 5.684 0 9.633 3.948 11.054 9.316l51.475-67.896 10.263.159-70.579 93.155c-1.104 1.424-2.526 3.318-2.526 5.211 0 1.107.789 2.055 1.893 2.055 10.422 0 24.633-18.158 30.157-26.052l1.265.475c-6.631 11.998-20.524 30.945-35.999 30.945-3.791 0-6.317-3-6.317-6.787 0-.79.161-1.737.316-2.527-6.156 4.105-12.632 8.686-20.211 8.686-4.894 0-9.788-2.843-9.788-8.213 0-1.736.314-3.629.789-5.366-7.737 5.842-17.682 12.632-27.79 12.632-3.474 0-6.473-2.213-6.473-5.846 0-3.314 1.579-6 3.475-8.683l16.736-23.685c.473-.629 1.265-1.419 1.265-2.051 0-1.107-2.371-1.107-3.16-1.107-.316 0-.631 0-.945 0-7.737 13.739-32.056 42.475-48.948 42.475-3.315 0-6.473-2.368-6.473-5.842 0-.948.155-2.052.314-3-6.948 4.264-14.369 8.842-22.737 8.842-6.472 0-9.474-4.736-9.474-10.578v-.316c-6.317 4.422-15.316 11.053-23.367 11.053-3.948 0-7.106-2.686-7.106-6.787 0-3.163 1.579-6.159 3.473-8.846l15.633-21.156c.475-.632.945-1.422.945-2.054 0-.314-.156-.632-.471-.632-9.475 0-30.791 23.685-36.16 30.634l-30.315 38.998-11.21-.158 49.577-62.84c-8.367 5.999-17.526 10.42-26.525 15.158-8.37 8.998-19.737 17.684-32.684 17.684-5.211 0-9.948-3.633-9.948-9.16 0-1.262.157-2.683.314-3.947l-4.262 3.002c-6.63 4.422-15.157 11.209-23.37 11.209-2.84 0-4.895-2.527-4.895-5.367 0-3.315 1.897-6.158 3.633-8.683l18.473-25.896c.475-.472.632-1.261.632-1.894 0-.632-.632-1.104-1.264-1.104-7.735 0-22.578 13.104-28.261 17.684l-17.843 23.999h-13.578l22.58-27c-4.897 2.526-9.634 4.894-14.528 7.263-11.682 11.209-25.105 21.473-42 21.473-12.946 0-21.948-8.365-21.948-21.316 0-11.842 4.897-22.734 11.21-32.525-1.104.157-2.366.157-3.473.157-16.578-.005-38.052-8.057-38.052-27.794 0-32.209 47.526-41.051 71.528-41.051 6.788 0 13.419.629 20.052 1.579zm-31.262 60c14.683-1.896 29.369-6.791 42.632-13.579 10.106-5.054 39.157-24.159 39.157-37.738 0-1.264-1.579-1.737-2.526-1.737-13.264 0-34.263 14.683-44.369 21.631-13.105 8.843-24.473 19.424-34.894 31.423zm78.317 6.156c11.682-6.631 43.736-31.894 43.736-44.998 0-.317-.317-.632-.632-.632-10.578 0-36.788 37.263-43.104 45.63zm53.368 33.001c-.632-1.104-1.104-2.211-1.104-3.633 0-5.841 5.369-8.524 10.42-8.999 1.104-2.051 2.369-4.262 2.369-6.631 0-2.21-2.211-2.843-3.947-2.843-12.157 0-35.685 22.42-35.685 34.263 0 1.896 1.104 3.474 3.001 3.474 9.788 0 19.419-8.209 24.946-15.631zm121.894-18.001c0-2.84-1.893-4.894-4.895-4.894-11.843 0-35.055 23.052-35.055 35.213 0 1.578 1.265 2.996 2.843 2.996 11.843 0 37.107-21.155 37.107-33.315zm100.265-1.104c0-2.211-1.106-4.894-3.791-4.894-12.159 0-33.632 24.631-33.632 35.842 0 2.054 1.578 3.63 3.632 3.63 10.892-.001 33.791-23.368 33.791-34.578z"/></g></svg>