<svg clip-rule="evenodd" fill-rule="evenodd" height="156.10306" image-rendering="optimizeQuality" shape-rendering="geometricPrecision" text-rendering="geometricPrecision" viewBox="0 0 240 73.9459" width="510.45016" xmlns="http://www.w3.org/2000/svg"><path d="m102.502.775784h-1.43014l-36.3417 24.2248-.159957-.624778c-5.00458-14.2346-19.0869-20.4883-37.077-20.4883h-25.8567v65.6872h27.4144c17.2189 0 30.9832-7.04017 35.6793-20.4904l.156065-.468454 36.920702 24.5542 39.1184-26.1195v22.5242h46.825v-20.0733h-23.3659v-45.6139h-23.4592v23.2306l-29.1684 19.8982-6.61738-4.6883 29.7263-20.02-13.1873-8.54659-30.042602 20.02-6.33561-3.95728 30.036702-20.0181-12.8351-9.03023zm-60.1494 36.7341c0 8.60562-6.25375 12.5152-14.0805 12.5152h-3.16307v-25.8091h3.16307c8.60562 0 14.0805 4.37981 14.0805 13.2939zm196.01 32.0648h-45.8557v-65.6872h23.4649v45.6139h22.3908z" fill="#0073c9" fill-rule="nonzero" transform="translate(.000449 .000032)"/></svg>