<svg viewBox="226 19 442 170" xmlns="http://www.w3.org/2000/svg"><g fill="#fff"><path d="m238.1 178.1c2.5-2.4 4.4-5.4 5.5-8.9.9-2.7 1.5-5.9 1.8-9.6.3-3.6.4-9.2.4-16.8v-48l-10.4-1.4v-5.4h31.8v5.4l-9.8 1.4v48.8c0 5.7-.1 10.3-.2 13.7-.1 3.5-.5 6.4-1 8.9-1.3 5.8-4.1 10.5-8.5 14.3-4.4 3.7-9.5 6.1-15.2 7.1l-2.9-4.5c3.1-.9 5.9-2.6 8.5-5z"/><path d="m287.7 160.7c-5-5.7-7.5-14.4-7.5-26.3v-39.6l-7.7-1.3v-5.4h28.8v5.4l-9.2 1.4v40.7c0 9.8 1.7 16.8 5.2 21.2 3.5 4.3 8.5 6.5 15.1 6.5s11.5-2.3 14.7-6.9c3.3-4.6 4.9-11.3 4.9-20.1v-41.4l-9.1-1.4v-5.4h25.2v5.4l-7.9 1.3v40.9c0 11.2-2.7 19.6-8 25.2-5.3 5.5-12.4 8.3-21.3 8.3s-18.2-2.8-23.2-8.5z"/><path d="m369.7 168.6c-3-.6-6.2-1.5-9.7-2.6-2.2-.8-3.8-1.2-4.9-1.3l.9-19.5h6.9l1.8 14c1.2 1.2 3.2 2.2 6 3.1s5.8 1.4 9.1 1.4c5.5 0 9.6-1.2 12.5-3.7 2.8-2.4 4.3-5.8 4.3-10.2s-.8-5.2-2.3-7.2-3.6-3.7-6.2-5.2c-2.6-1.4-6.1-3.1-10.5-5.1-4-1.8-7.5-3.6-10.5-5.5s-5.6-4.4-7.8-7.5-3.3-6.9-3.3-11.3 1.1-7.5 3.2-10.6 5.2-5.6 9.2-7.4 8.7-2.7 14-2.7 6.2.3 8.8.8 5.5 1.2 8.7 2.1c1.4.5 2.7.8 3.7 1l-.6 18.1h-6.6l-2.2-13.3c-.7-.7-2.2-1.4-4.5-2.1s-4.7-1-7.4-1c-5 0-8.7 1-11.3 3.1s-3.8 5.1-3.8 9.1.8 5.3 2.3 7.2 3.5 3.6 5.8 5 6 3.2 11 5.6c4.7 2.2 8.5 4.2 11.4 6 3 1.8 5.5 4.2 7.6 7.1s3.2 6.4 3.2 10.4-1.1 7.5-3.2 11-5.4 6.4-9.7 8.7c-4.4 2.3-9.6 3.4-15.8 3.4s-7.1-.3-10.1-.9z"/><path d="m442.5 93.8-18.6.6-3.8 22.6h-7.1l1.8-28.9h67.3l1.3 28.9h-6.8l-3.6-22.6-18.7-.6v68.2l15.3 1.1v5.3h-41.3v-5.4l14-1.1v-68.1z"/><path d="m500.4 94.8-10-1.3v-5.4h31.8v5.4l-10 1.3v67.2l10 1.2v5.2h-31.6v-5.4l9.9-1.1v-67.1s-.1 0-.1 0z"/><path d="m547.2 164.4c-5.6-3.4-9.8-8.2-12.7-14.4s-4.3-13.5-4.3-21.8 1.7-15.2 5.1-21.4 8-11 13.9-14.4 12.5-5.1 19.9-5.1 12.2.9 20 2.6l3.6.6-1.1 19.4h-7.2l-2.7-13.7c-1-.9-2.8-1.6-5.2-2.2-2.5-.6-5.5-.9-9.1-.9s-8.7 1.3-12.3 3.9-6.4 6.5-8.5 11.6-3.1 11.2-3.1 18.4.9 12.9 2.7 18.5c1.8 5.5 4.5 10 8.2 13.2 3.7 3.3 8.2 4.9 13.6 4.9s6.8-.3 8.8-1c2.1-.6 3.8-1.6 5.2-2.8l4.5-10.6 6.8.9-2.6 15.3c-1.5.1-3.7.6-6.7 1.5-2.6.8-5.1 1.4-7.5 1.9s-5.4.7-9 .7c-8 0-14.7-1.7-20.3-5.1z"/><path d="m609.7 94.8-8.9-1.3v-5.4h55l1.5 16.7h-6.2l-3.1-10.4-26.8-.6v30.5l18-.3 1.5-9h5.9v24.8h-5.9l-1.5-9.3-18-.3v32.2l30.5-1.1 5.7-13.6 6.4 1.9-3.1 18.8h-59.9v-5.4l9-1.1v-67.1z"/><path d="m236.9 53.5c-2.1-2.1-3.1-5.5-3.1-10v-15.2l-2.8-.5v-2.6h12.7v2.6l-3.6.6v15.6c0 6.7 2.4 10 7.1 10s4-.9 5.2-2.6c1.1-1.7 1.7-4.1 1.7-7.2v-15.9l-3.6-.6v-2.6h10.5v2.6l-2.9.5v15.5c0 4.4-1.1 7.6-3.2 9.7s-5 3.1-8.5 3.1c-4.3.2-7.5-.9-9.5-3z"/><path d="m266.9 55.8c-.6-.6-1-1.4-1-2.3s.4-1.9 1.1-2.5c.7-.7 1.6-1 2.7-1s1.8.3 2.4.9.9 1.4.9 2.2-.4 2-1.1 2.6-1.6.9-2.8.9-1.5-.2-2.2-.8z"/><path d="m286 56.4c-1.2-.3-2.5-.6-4-1-1-.3-1.6-.4-2-.5l.4-7.8h3.4l.9 5.4c.4.4 1 .7 2 1 .9.3 2 .5 3.2.5 1.9 0 3.3-.4 4.2-1.2s1.4-2 1.4-3.5-.3-1.8-.8-2.5c-.6-.7-1.3-1.4-2.3-1.9-1-.6-2.3-1.2-4-2-2.3-1.1-4.2-2.3-5.8-3.8-1.5-1.5-2.3-3.5-2.3-6s.4-3 1.2-4.3 2-2.3 3.6-3 3.6-1.1 5.9-1.1 2.6.1 3.6.3c1.1.2 2.2.5 3.4.8.7.2 1.3.3 1.6.4l-.3 7.3h-3.4l-.9-5.2c-.3-.3-.8-.5-1.5-.7-.8-.2-1.6-.4-2.5-.4-1.7 0-2.9.4-3.8 1.2s-1.3 1.8-1.3 3.1.3 1.9.9 2.7 1.4 1.4 2.3 1.9 2.3 1.3 4.2 2.2c1.6.8 2.9 1.5 4 2.2s2.1 1.7 2.9 2.8c.8 1.2 1.2 2.5 1.2 4.1s-.4 3-1.2 4.4-2 2.6-3.8 3.5-4 1.4-6.7 1.4-2.5 0-3.7-.3z"/><path d="m308.5 55.8c-.6-.6-1-1.4-1-2.3s.4-1.9 1.1-2.5c.7-.7 1.6-1 2.7-1s1.8.3 2.4.9.9 1.4.9 2.2-.4 2-1.1 2.6-1.6.9-2.8.9-1.5-.2-2.2-.8z"/><path d="m336.1 28.3-3.1-.5v-2.6h6.1c.9 0 2.2-.1 3.7-.2.4 0 .9-.1 1.7-.1h2c5.2 0 9 1.3 11.6 3.9s3.8 6.2 3.8 11-.6 6.2-1.9 8.8-3.1 4.6-5.4 6c-2.4 1.4-5.1 2.2-8.2 2.2s-2.1 0-3.8-.2c-1.6 0-2.7-.2-3.3-.2h-6.4v-2.5l3.3-.4v-25.2zm10.1 25.6c2.8 0 5-1.2 6.6-3.4s2.4-5.5 2.4-9.9-.8-7.4-2.4-9.7-4-3.4-7.3-3.4-1.4 0-2 .1-1.1.1-1.3.2v25.7c1 .3 2.3.4 4 .4z"/><path d="m369.3 53.5c-1.8-2.2-2.7-5.1-2.7-8.9s.5-4.7 1.4-6.6c.9-1.8 2.3-3.3 4-4.2 1.7-1 3.7-1.5 5.9-1.5s5 .7 6.5 2.2 2.3 3.6 2.4 6.3c0 1.8-.1 3.2-.3 4.1h-13.7c.1 2.5.7 4.5 1.8 5.9s2.6 2.1 4.7 2.1 2.2-.2 3.4-.5 2.1-.8 2.8-1.3l1 2.3c-.8.8-2 1.6-3.7 2.2-1.7.7-3.4 1-5.1 1-3.8.2-6.6-.9-8.4-3.1zm11.5-11c.1-.8.1-1.4.1-1.8 0-3.7-1.2-5.6-3.7-5.6s-2.4.5-3.2 1.6-1.2 3-1.3 5.8z"/><path d="m413.8 50.4c-1 2-2.4 3.5-4.2 4.7-1.9 1.2-4.1 1.7-6.7 1.7s-1.1 0-1.7 0-1.1-.2-1.4-.4v3.5c.1 0 .1 3.8.1 3.8l3.9.5v2.4h-12.5v-2.4l2.7-.5v-26.6l-2.7-.8v-2.9l6.9-.9h.1l1 .8v2.4c.7-.9 1.7-1.6 2.9-2.3 1.2-.6 2.5-1 3.9-1 2.7 0 4.8.9 6.6 2.8 1.7 1.9 2.6 4.8 2.6 8.7s-.5 4.6-1.5 6.6zm-12.2-14c-.8.4-1.3.8-1.7 1.2v15.6c.2.3.6.5 1.2.7s1.3.3 2 .3c1.8 0 3.3-.8 4.3-2.4 1.1-1.6 1.6-4.1 1.6-7.5s-.5-5-1.4-6.4-2.1-2.1-3.7-2.1-1.6.3-2.3.6z"/><path d="m424.1 44c2.6-1.3 5.9-1.9 9.9-2v-1c0-1.1-.1-2-.4-2.7-.2-.6-.7-1.1-1.3-1.4s-1.5-.5-2.8-.5-2.6.2-3.7.5-2.2.8-3.4 1.4l-1.3-2.7c.4-.4 1.1-.8 2.1-1.3s2.2-.9 3.5-1.3 2.8-.6 4.2-.6c2.2 0 3.8.3 5.1.8 1.2.6 2.1 1.5 2.6 2.7s.8 2.9.8 5v12.9h2.3v2.4c-.6 0-1.4.3-2.4.4-1 0-1.9.2-2.7.2s-1.6 0-1.9-.4c-.3-.3-.5-.9-.5-1.7v-1.1c-.8.8-1.7 1.6-2.9 2.3s-2.6 1-4.1 1-2.5-.3-3.5-.8-1.9-1.3-2.6-2.4c-.6-1-1-2.3-1-3.8 0-2.7 1.4-4.6 4-5.9zm7.9 8.8c.8-.4 1.4-.8 2-1.3v-6.9c-2.5 0-4.4.4-5.6 1.3s-1.9 2-1.9 3.3.3 2.4.9 3.1 1.5 1.1 2.6 1.1 1.3-.3 2-.6z"/><path d="m446.4 53.9 2.8-.3v-16.6l-2.7-.8v-2.9l6.5-.9h.1l1.1.8v4.3c-.1 0 0 0 0 0 .2-.6.7-1.3 1.4-2.1s1.6-1.6 2.8-2.2c1.1-.6 2.3-.9 3.6-.9s1.1 0 1.6.3v6.3c-.8-.6-1.9-.9-3.1-.9-2 0-3.8.5-5.3 1.6v13.8l4.9.4v2.5h-13.6v-2.4z"/><path d="m471.3 55.5c-.8-.8-1.3-2.1-1.3-3.9v-15.4h-2.7v-2.2c.2 0 .6-.2 1.2-.4s1-.4 1.3-.5c.5-.4.9-1 1.2-1.9.3-.6.7-2 1.4-4.4h3.4l.2 6.2h6.4v3.2h-6.4v11.8c0 1.6 0 2.7.1 3.3s.3 1.1.5 1.2c.3.2.8.3 1.5.3s1.4 0 2.2-.2 1.4-.3 1.9-.6l.8 2.4c-.8.6-1.9 1.1-3.4 1.6s-3 .7-4.4.7-3-.4-3.9-1.2z"/><path d="m487.3 53.8 2.4-.4v-16.4l-2.7-.8v-2.9l7-.9.5.3.6 1.4v1.8c.9-.9 2.2-1.7 4-2.4 1.7-.7 3.2-1 4.5-1s2.7.3 3.7.8 1.6 1.3 2.1 2.4c.9-.8 2.1-1.6 3.7-2.2 1.5-.6 3-.9 4.5-.9 2.5 0 4.3.7 5.3 2.2s1.6 3.8 1.6 7.1v11.6l2.7.4v2.5h-10.9v-2.5l2.2-.4v-11.5c0-2.2-.3-3.7-.8-4.6s-1.5-1.3-3-1.3-1.6.2-2.4.5c-.8.4-1.6.8-2.2 1.3.2 1.1.3 2.4.3 4v11.6l2.6.4v2.5h-11v-2.5l2.3-.4v-11.6c0-1.5-.1-2.6-.3-3.4s-.5-1.4-1-1.8-1.2-.6-2.2-.6-1.8.2-2.7.6-1.7.9-2.4 1.4v15.3l2.5.4v2.5h-10.8v-2.5z"/><path d="m534.2 53.5c-1.8-2.2-2.7-5.1-2.7-8.9s.5-4.7 1.4-6.6c.9-1.8 2.3-3.3 4-4.2 1.7-1 3.7-1.5 5.9-1.5s5 .7 6.5 2.2 2.3 3.6 2.4 6.3c0 1.8 0 3.2-.3 4.1h-13.6c0 2.5.7 4.5 1.8 5.9s2.6 2.1 4.7 2.1 2.2-.2 3.4-.5 2.1-.8 2.8-1.3l1 2.3c-.8.8-2 1.6-3.7 2.2-1.7.7-3.4 1-5.1 1-4 .2-6.7-.9-8.5-3.1zm11.5-11v-1.8c0-3.7-1.2-5.6-3.7-5.6s-2.4.5-3.2 1.6-1.2 3-1.3 5.8z"/><path d="m559.3 37-2.7-.8v-2.9l7-.9 1 .8v2.6c1-.9 2.3-1.7 3.8-2.4 1.6-.7 3.1-1 4.7-1s3 .3 4 .9 1.7 1.6 2.1 3c.4 1.3.6 3.2.6 5.5v11.6l2.6.3v2.5h-10.8v-2.5l2.3-.3v-11.5c0-1.5 0-2.6-.3-3.4-.2-.8-.6-1.4-1.1-1.8s-1.3-.6-2.2-.6c-1.6 0-3.3.7-5.1 2.1v15.3l2.5.4v2.5h-11v-2.5l2.4-.4v-16.5z"/><path d="m590.6 55.5c-.8-.8-1.3-2.1-1.3-3.9v-15.4h-2.7v-2.2c.2 0 .6-.2 1.2-.4s1-.4 1.3-.5c.5-.4.9-1 1.2-1.9.3-.6.7-2 1.4-4.4h3.4l.2 6.2h6.4v3.2h-6.4v15.1c0 .6.3 1.1.5 1.2.3.2.8.3 1.5.3s1.4 0 2.2-.2 1.4-.3 1.9-.6l.8 2.4c-.8.6-1.9 1.1-3.4 1.6s-3 .7-4.4.7-3-.4-3.9-1.2z"/><path d="m620.1 38c1-1.8 2.5-3.2 4.2-4.2 1.8-.9 3.7-1.4 5.8-1.4 3.5 0 6.2 1.1 8.2 3.3 1.9 2.2 2.9 5.1 2.9 8.8s-.5 4.9-1.6 6.8c-1 1.9-2.5 3.2-4.2 4.2-1.8.9-3.7 1.4-5.8 1.4-3.5 0-6.2-1.1-8.1-3.3s-2.9-5.1-2.9-8.8c0-2.7.4-5 1.5-6.8zm14.5 6.9c0-3.2-.4-5.6-1.1-7.3-.8-1.7-2-2.5-3.7-2.5-3.2 0-4.9 3.1-4.9 9.2s.4 5.6 1.2 7.3 2.1 2.5 3.8 2.5c3.2 0 4.7-3.1 4.7-9.2z"/><path d="m649.8 36.3h-3.5v-2.4l3.5-.8v-1.8c0-1.8.5-3.5 1.4-5 1-1.5 2.3-2.7 3.9-3.6s3.3-1.3 5.2-1.3 1.8.1 2.7.4v5.4c-.3-.3-.8-.6-1.7-.8-.8-.3-1.7-.4-2.6-.4s-1.9.3-2.3.8c-.5.5-.7 1.5-.7 2.8v3.4h5.3v3.2h-5.3v17.2l4.4.3v2.5h-13.7v-2.5l3.3-.4v-17z"/><path d="m238.1 178.1c2.5-2.4 4.4-5.4 5.5-8.9.9-2.7 1.5-5.9 1.8-9.6.3-3.6.4-9.2.4-16.8v-48l-10.4-1.4v-5.4h31.8v5.4l-9.8 1.4v48.8c0 5.7-.1 10.3-.2 13.7-.1 3.5-.5 6.4-1 8.9-1.3 5.8-4.1 10.5-8.5 14.3-4.4 3.7-9.5 6.1-15.2 7.1l-2.9-4.5c3.1-.9 5.9-2.6 8.5-5z"/><path d="m287.7 160.7c-5-5.7-7.5-14.4-7.5-26.3v-39.6l-7.7-1.3v-5.4h28.8v5.4l-9.2 1.4v40.7c0 9.8 1.7 16.8 5.2 21.2 3.5 4.3 8.5 6.5 15.1 6.5s11.5-2.3 14.7-6.9c3.3-4.6 4.9-11.3 4.9-20.1v-41.4l-9.1-1.4v-5.4h25.2v5.4l-7.9 1.3v40.9c0 11.2-2.7 19.6-8 25.2-5.3 5.5-12.4 8.3-21.3 8.3s-18.2-2.8-23.2-8.5z"/><path d="m369.7 168.6c-3-.6-6.2-1.5-9.7-2.6-2.2-.8-3.8-1.2-4.9-1.3l.9-19.5h6.9l1.8 14c1.2 1.2 3.2 2.2 6 3.1s5.8 1.4 9.1 1.4c5.5 0 9.6-1.2 12.5-3.7 2.8-2.4 4.3-5.8 4.3-10.2s-.8-5.2-2.3-7.2-3.6-3.7-6.2-5.2c-2.6-1.4-6.1-3.1-10.5-5.1-4-1.8-7.5-3.6-10.5-5.5s-5.6-4.4-7.8-7.5-3.3-6.9-3.3-11.3 1.1-7.5 3.2-10.6 5.2-5.6 9.2-7.4 8.7-2.7 14-2.7 6.2.3 8.8.8 5.5 1.2 8.7 2.1c1.4.5 2.7.8 3.7 1l-.6 18.1h-6.6l-2.2-13.3c-.7-.7-2.2-1.4-4.5-2.1s-4.7-1-7.4-1c-5 0-8.7 1-11.3 3.1s-3.8 5.1-3.8 9.1.8 5.3 2.3 7.2 3.5 3.6 5.8 5 6 3.2 11 5.6c4.7 2.2 8.5 4.2 11.4 6 3 1.8 5.5 4.2 7.6 7.1s3.2 6.4 3.2 10.4-1.1 7.5-3.2 11-5.4 6.4-9.7 8.7c-4.4 2.3-9.6 3.4-15.8 3.4s-7.1-.3-10.1-.9z"/><path d="m442.5 93.8-18.6.6-3.8 22.6h-7.1l1.8-28.9h67.3l1.3 28.9h-6.8l-3.6-22.6-18.7-.6v68.2l15.3 1.1v5.3h-41.3v-5.4l14-1.1v-68.1z"/><path d="m500.4 94.8-10-1.3v-5.4h31.8v5.4l-10 1.3v67.2l10 1.2v5.2h-31.6v-5.4l9.9-1.1v-67.1s-.1 0-.1 0z"/><path d="m547.2 164.4c-5.6-3.4-9.8-8.2-12.7-14.4s-4.3-13.5-4.3-21.8 1.7-15.2 5.1-21.4 8-11 13.9-14.4 12.5-5.1 19.9-5.1 12.2.9 20 2.6l3.6.6-1.1 19.4h-7.2l-2.7-13.7c-1-.9-2.8-1.6-5.2-2.2-2.5-.6-5.5-.9-9.1-.9s-8.7 1.3-12.3 3.9-6.4 6.5-8.5 11.6-3.1 11.2-3.1 18.4.9 12.9 2.7 18.5c1.8 5.5 4.5 10 8.2 13.2 3.7 3.3 8.2 4.9 13.6 4.9s6.8-.3 8.8-1c2.1-.6 3.8-1.6 5.2-2.8l4.5-10.6 6.8.9-2.6 15.3c-1.5.1-3.7.6-6.7 1.5-2.6.8-5.1 1.4-7.5 1.9s-5.4.7-9 .7c-8 0-14.7-1.7-20.3-5.1z"/><path d="m609.7 94.8-8.9-1.3v-5.4h55l1.5 16.7h-6.2l-3.1-10.4-26.8-.6v30.5l18-.3 1.5-9h5.9v24.8h-5.9l-1.5-9.3-18-.3v32.2l30.5-1.1 5.7-13.6 6.4 1.9-3.1 18.8h-59.9v-5.4l9-1.1v-67.1z"/></g></svg>