<svg height="322.47" viewBox="0 0 800 322.47" width="800" xmlns="http://www.w3.org/2000/svg"><g fill="#5a87c5"><path d="m44.758999 85.823997h67.435997v22.073999h-67.435997z"/><path d="m44.758999 128.735h67.435997v22.073999h-67.435997z"/><path d="m44.758999 171.655h67.435997v22.073h-67.435997z"/><path d="m44.758999 214.56h67.435997v22.073h-67.435997z"/><path d="m1.229 257.478h155.717v22.073999h-155.717z"/><path d="m1.229 300.397h155.717v22.073h-155.717z"/><path d="m0 42.904999h155.717v22.073h-155.717z"/><path d="m0 0h155.717v22.073h-155.717z"/><path d="m607.521 107.897-7.969-22.073h-111.583v22.073z"/><path d="m555.405 150.809v-12.266l4.297 12.266h123.526l4.585-12.266v12.266h67.436v-22.074h-126.581l-6.74 18.711-6.754-18.711h-127.205v22.074z"/><path d="m487.96899 171.655h67.435997v22.073h-67.435997z"/><path d="m668.43 193.707 7.749-22.052h-108.508l8.126 22.052z"/><path d="m487.96899 214.56h67.435997v22.073h-67.435997z"/><path d="m444.44601 257.478h110.959v22.073999h-110.959z"/><path d="m444.44601 300.397h110.959v22.073h-110.959z"/><path d="m652.966 236.633 7.969-22.073h-77.952l7.901 22.073z"/><path d="m638.024 279.552 7.645-22.074h-47.345l8.126 22.074z"/><path d="m621.537 322.416 1.338.034 7.928-22.053h-17.07z"/><path d="m443.218 42.926v22.052h148.977l-7.372-22.052z"/><path d="m443.218 0v22.073h134.261l-7.969-22.073z"/><path d="m755.249 107.897v-22.073h-112.166l-7.977 22.073z"/><path d="m687.81299 171.655h67.436996v22.073h-67.436996z"/><path d="m687.81299 214.56h67.436996v22.073h-67.436996z"/><path d="m687.81299 257.478h112.188v22.073999h-112.188z"/><path d="m687.81299 300.397h112.188v22.073h-112.188z"/><path d="m657.791 42.926-7.372 22.052h148.352v-22.052z"/><path d="m673.729 0-7.97 22.073h133.012v-22.073z"/><path d="m222.521 85.823997h67.436996v22.073999h-67.436996z"/><path d="m394.788 150.809s14.414-11.332 19.005-22.074h-191.272v22.074z"/><path d="m222.521 171.655v22.052h191.271c-4.592-10.707-19.005-22.052-19.005-22.052z"/><path d="m222.521 214.56h67.436996v22.073h-67.436996z"/><path d="m422.998 107.897s4.29-11.648 4.29-22.074h-71.726v22.074z"/><path d="m355.561 214.56v22.073h71.726c0-10.412-4.29-22.073-4.29-22.073z"/><path d="m177.792 42.926v22.052h247.648s-2.903-17.001-7.948-22.052z"/><path d="m417.492 279.552c5.045-5.059 7.948-22.074 7.948-22.074h-247.648v22.074z"/><path d="m177.792 0v22.073h221.903s-22.685-22.073-52.706-22.073z"/><path d="m346.989 322.45c30.021 0 52.706-22.053 52.706-22.053h-221.903v22.053z"/></g></svg>