<svg height="40" width="100" xmlns="http://www.w3.org/2000/svg"><g fill="none" fill-rule="evenodd"><path d="m99.9856687 40h-99.9856687v-40h100v40z" fill="#0058ab"/><path d="m2 20c0 9.8325 20.1163 18 48.0072 18 27.8908 0 47.9928-8.1675 47.9928-18s-20.1163-18-47.9928-18c-27.8766 0-48.0072 8.1675-48.0072 18z" fill="#fbd914"/><path d="m46.448 26.0047c.3153.4477.6593.8674 1.0606 1.2452h-10.8212c0-.4198-.4156-1.2732-.8743-1.9447-.4586-.6716-2.9382-4.351-2.9382-4.351v5.0505c0 .4197 0 .8254.215 1.2452h-9.0152c.215-.4198.215-.8255.215-1.2452v-12.0039c0-.4197 0-.8254-.215-1.2451h9.0152c-.215.4197-.215.8254-.215 1.2451v5.2465s2.8809-3.6655 3.5402-4.519c.5016-.6435 1.118-1.553 1.118-1.9726h9.4022c-.645.4197-1.3616 1.1752-1.9493 1.8747-.516.6156-3.4398 4.0992-3.4398 4.0992s4.3284 6.4497 4.9017 7.2751zm2.8378-12.0039v12.0039c0 .4197 0 .8254-.215 1.2452h17.3999v-4.0293c-.43.2098-.8457.2098-1.2756.2098h-7.324v-1.9027h7.0373v-3.05h-7.0373v-1.9166h7.324c.43 0 .8456 0 1.2756.1959v-4.0153h-17.3999c.215.4337.215.8394.215 1.2591zm41.2924 12.0039c.1433.4617.387.8814.7023 1.2452h-9.4309c.043-.4198-.1146-.8255-.2866-1.2452 0 0-.1434-.3358-.344-.8254l-.086-.2099h-5.4321l-.086.2238s-.1577.4058-.301.8255-.301.8254-.2436 1.2451h-7.4387a3.6406 3.6406 0 0 0 .6737-1.2451l4.4574-12.0039c.1577-.4197.3153-.8254.258-1.2451h12.5697c-.1146.4197.1147.8254.2724 1.2451.3726.9094 4.4 11.1784 4.7154 11.9899zm-10.6348-4.0992-1.3186-3.3578c-.1147-.3077-.215-.6295-.2867-.9513a5.5011 5.5011 0 0 1 -.258.9513c-.043.14-.602 1.609-1.247 3.3578zm-60.1399-9.1498h-9.8035c.215.4197.215.8254.215 1.2451v12.0039c0 .4197 0 .8254-.215 1.2452h9.8035c-.215-.4198-.215-.8255-.215-1.2452v-12.0039c0-.4197 0-.8254.215-1.2451z" fill="#0058a3" fill-rule="nonzero"/></g></svg>