<svg fill="#1c4598" height="52.81875" viewBox="0 0 800 134.839" width="313" xmlns="http://www.w3.org/2000/svg"><path d="m38.52 133.18h-38.52v-131h66.62l76.43 97.8v-97.8h38.52v131h-65.27l-77.78-99.47z"/><path d="m365.87 92.67c0 18.21-3.22 24.49-8.55 30.51-8.17 8.96-20.06 11.66-42.97 11.66h-65.77c-22.91 0-34.82-2.7-42.98-11.66-5.33-6.02-8.55-12.3-8.55-30.51v-50.5c0-18.2 3.22-24.47 8.55-30.5 8.17-8.97 20.07-11.67 42.98-11.67h65.77c22.91 0 34.8 2.7 42.97 11.67 5.33 6.03 8.55 12.3 8.55 30.5zm-53.14 8.98c8.8 0 11.9-.52 14.01-2.44 1.97-1.79 2.84-4.1 2.84-11.8v-39.98c0-7.7-.87-9.99-2.84-11.79-2.11-1.93-5.21-2.44-14.01-2.44h-62.54c-8.8 0-11.9.51-14 2.44-1.98 1.8-2.85 4.09-2.85 11.79v39.98c0 7.7.87 10.01 2.85 11.8 2.1 1.92 5.2 2.44 14 2.44z"/><path d="m421.85 2.18v131h-40.25v-131zm68 0h53.14l-71.72 61.27 80.89 69.73h-56.86l-73.45-68.32z"/><path d="m559.58 2.18h40.26v131h-40.26"/><path d="m753.31 133.18-11.91-22.82h-77.89l-11.77 22.81h-44.47l71.35-130.99h50.04l71.34 131zm-75.81-51.27h50.05l-25.03-47.43z"/></svg>