<svg viewBox="0 0 41 41" fill="none" xmlns="http://www.w3.org/2000/svg"><path d="m18.254 36.564c10.082 0 18.254-8.185 18.254-18.282s-8.172-18.282-18.254-18.282c-10.081 0-18.254 8.185-18.254 18.282s8.173 18.282 18.254 18.282" fill="#2ca01c"/><path d="m12.17 11.172c-3.923 0-7.1 3.185-7.1 7.11 0 3.928 3.177 7.11 7.1 7.11h1.014v-2.642h-1.014a4.47 4.47 0 0 1 -4.463-4.47c0-2.465 2-4.468 4.462-4.468h2.438v13.813c0 1.458 1.18 2.64 2.637 2.64v-19.093zm12.173 14.219c3.923 0 7.099-3.185 7.099-7.11a7.1 7.1 0 0 0 -7.099-7.109h-1.013v2.641h1.014a4.47 4.47 0 0 1 4.462 4.469c0 2.466-2 4.469-4.462 4.469h-2.438v-13.813c0-1.459-1.18-2.64-2.637-2.64v19.092z" fill="#fff"/></svg>
