<svg viewBox="41 0 119 41" xmlns="http://www.w3.org/2000/svg"><path d="m53.842 41h-2.823v-7.162h-.049c-.73 1.13-2.166 1.836-3.74 1.836-3.436 0-5.553-2.734-5.553-6.033 0-3.348 2.259-5.94 5.48-5.94 2.069 0 3.343 1.012 3.906 1.91h.07v-1.58h2.705v16.969zm-6.044-7.682c2.069 0 3.318-1.861 3.318-3.628s-1.245-3.677-3.318-3.677c-2.187 0-3.245 1.86-3.245 3.628-.004 1.767 1.054 3.677 3.245 3.677m18.725 2.027h-2.683v-1.816h-.048c-.495 1.13-1.834 2.145-3.505 2.145-2.941 0-4.166-2.263-4.166-4.57v-7.07h2.823v6.27c0 1.344.304 3.014 2.118 3.014 1.788 0 2.636-1.556 2.636-3.064v-6.22h2.824zm2.831-11.558h2.823v11.31h-2.823zm13.386 3.38c-.445-.638-1.41-1.11-2.328-1.11-2.069 0-3.107 1.861-3.107 3.629 0 1.767 1.059 3.628 3.2 3.628.873 0 1.834-.354 2.378-1.012l1.764 1.792c-.941 1.011-2.495 1.58-4.166 1.58-3.343 0-6.117-2.214-6.117-5.984 0-3.677 2.73-5.985 6.048-5.985 1.647 0 3.363.659 4.259 1.768zm3.319-9.637h2.823v11.262h.07l4.283-4.762h3.622l-4.892 5.115 5.2 6.196h-3.74l-4.47-5.798h-.069v5.798h-2.823v-17.811zm15.22 0v7.943h.069c.588-.732 1.716-1.768 3.789-1.768 3.224 0 5.48 2.592 5.48 5.94 0 3.299-2.118 6.033-5.553 6.033-1.578 0-3.108-.731-3.883-2.027h-.048v1.698h-2.681v-17.819zm3.225 8.483c-2.069 0-3.318 1.91-3.318 3.677s1.245 3.628 3.318 3.628c2.186 0 3.245-1.91 3.245-3.677s-1.059-3.628-3.245-3.628m13.479-2.308c3.412 0 6.142 2.381 6.142 5.94s-2.73 6.033-6.142 6.033c-3.411 0-6.141-2.474-6.141-6.033s2.73-5.94 6.141-5.94m0 9.613c2.235 0 3.27-1.91 3.27-3.677s-1.035-3.628-3.27-3.628-3.269 1.86-3.269 3.628c0 1.767 1.034 3.677 3.269 3.677m13.508-9.613c3.412 0 6.142 2.381 6.142 5.94s-2.73 6.033-6.142 6.033c-3.411 0-6.141-2.474-6.141-6.033s2.73-5.94 6.141-5.94m0 9.613c2.236 0 3.27-1.91 3.27-3.677s-1.034-3.628-3.27-3.628-3.269 1.86-3.269 3.628c-.004 1.767 1.034 3.677 3.269 3.677m7.858-15.788h2.823v11.262h.069l4.284-4.762h3.623l-4.893 5.115 5.201 6.196h-3.74l-4.471-5.798h-.069v5.798h-2.823v-17.811zm18.81 9.519c-.495-.658-1.436-1.227-2.47-1.227-.893 0-1.814.33-1.814 1.227 0 .873.873 1.11 2.446 1.483 1.672.402 3.647 1.154 3.647 3.368 0 2.758-2.235 3.77-4.705 3.77-1.741 0-3.554-.658-4.637-1.86l1.858-1.744a3.68 3.68 0 0 0 2.892 1.414c.824 0 1.814-.329 1.814-1.345 0-.942-.873-1.226-2.588-1.625-1.672-.402-3.343-1.084-3.343-3.205 0-2.523 2.259-3.604 4.494-3.604 1.623 0 3.318.565 4.235 1.719zm-85.548-18.456c0 2.868 2.292 4.964 5.205 4.964s5.209-2.092 5.209-4.964v-6.586h-2.825v6.248c0 1.548-1.034 2.584-2.393 2.584-1.364 0-2.394-1.036-2.394-2.584v-6.248h-2.819l.016 6.586zm17.955-3.941h3.367v8.677h2.819v-8.677h3.362v-2.645h-9.549v2.645zm-1.826-2.645h-2.819v11.322h2.82v-11.321zm-27.52 2.645h3.368v8.677h2.819v-8.677h3.363v-2.645h-9.55zm-14.793-2.645h-2.82v11.322h2.82v-11.321zm13.309 4.737c0-2.868-2.296-4.965-5.208-4.965s-5.209 2.093-5.209 4.965v6.585h2.82v-6.248c0-1.548 1.034-2.584 2.393-2.584s2.393 1.036 2.393 2.584v6.248h2.82z" fill="#000"/></svg>
