<svg viewBox="0 0 290 360.27348" xmlns="http://www.w3.org/2000/svg"><path d="m0 0h233.93118v360.27348h-233.93118z" fill="#e9500e"/><g fill="#fff"><circle cx="51.02111" cy="237.79719" r="24.5497"/><circle cx="153.26149" cy="183.96621" r="24.5497"/><path d="m230.42052 418.67131a59.78848 59.78848 0 0 1 -40.772-31.0957 35.34018 35.34018 0 0 1 -20.99024 2.58008 79.92109 79.92109 0 0 0 57.53955 48.22363 80.88379 80.88379 0 0 0 17.43262 1.79395 35.1274 35.1274 0 0 1 -7.188-20.52539c-2.02193-.22461-4.04145-.55274-6.02193-.97657z" transform="translate(-124.03135 -117.69304)"/><circle cx="147.73055" cy="301.11369" r="24.5497"/><path d="m305.92394 409.78948a80.3186 80.3186 0 0 0 4.0249-94.23828 35.38432 35.38432 0 0 1 -13.80518 16.168 60.18666 60.18666 0 0 1 -1.96728 59.78028 35.20475 35.20475 0 0 1 11.74756 18.29z" transform="translate(-124.03135 -117.69304)"/><path d="m173.15831 320.28362q.93458-.05127 1.87012-.05078a35.42979 35.42979 0 0 1 18.61767 5.30175 59.87445 59.87445 0 0 1 48.2109-25.78418 35.5969 35.5969 0 0 1 7.44776-19.90966 80.69546 80.69546 0 0 0 -76.14645 40.44287z" transform="translate(-124.03135 -117.69304)"/></g></svg>
