<svg viewBox="290 0 732.41151 360.27348" xmlns="http://www.w3.org/2000/svg"><g fill="#000" transform="translate(-124.03135 -117.69304)"><path d="m473.25634 449.42424q-16.27587 0-27.71484-4.95312a47.72194 47.72194 0 0 1 -18.51563-13.68067 54.867 54.867 0 0 1 -10.26074-20.40332 95.14545 95.14545 0 0 1 -3.18457-25.12011v-102.83936h16.03906v100.71734a75.39335 75.39335 0 0 0 3.18457 23.23242 44.82139 44.82139 0 0 0 8.84571 16.15722 34.4988 34.4988 0 0 0 13.67969 9.43555 53.93177 53.93177 0 0 0 35.85253 0 34.5365 34.5365 0 0 0 13.68067-9.43555 44.82022 44.82022 0 0 0 8.84473-16.15722 75.39335 75.39335 0 0 0 3.18457-23.23242v-100.71734h16.03906v102.83934a95.18621 95.18621 0 0 1 -3.1836 25.12011 54.86666 54.86666 0 0 1 -10.26074 20.40332 47.758 47.758 0 0 1 -18.51562 13.68067q-11.44336 4.95266-27.71485 4.95314z"/><path d="m585.55224 331.25334q4.00782-3.063 12.85547-6.48632a57.82051 57.82051 0 0 1 20.874-3.4209 55.62889 55.62889 0 0 1 23.46973 4.71777 48.79834 48.79834 0 0 1 17.33594 13.209 58.33726 58.33726 0 0 1 10.73242 20.167 85.32351 85.32351 0 0 1 3.65625 25.59179 76.43564 76.43564 0 0 1 -4.36426 26.65332 57.36549 57.36549 0 0 1 -12.26465 20.04883 52.75477 52.75477 0 0 1 -18.87009 12.61917 65.52706 65.52706 0 0 1 -24.41211 4.36328q-16.27589 0-26.88965-2.12207a137.63729 137.63729 0 0 1 -17.4541-4.48242v-176.43071l15.33105-2.83057zm0 100.24512a67.60723 67.60723 0 0 0 10.4961 2.24024 126.0587 126.0587 0 0 0 18.28027 1.06152q19.81347 0 31.84277-12.85449 12.0293-12.854 12.0293-36.91407a84.27316 84.27316 0 0 0 -2.12305-19.22363 45.10124 45.10124 0 0 0 -6.83984-15.80371 34.28239 34.28239 0 0 0 -12.38379-10.73144q-7.667-4.00782-18.98731-4.00977a49.36958 49.36958 0 0 0 -10.37792 1.06152 60.36572 60.36572 0 0 0 -9.19922 2.71192 50.86656 50.86656 0 0 0 -7.42969 3.53808 52.485 52.485 0 0 0 -5.30762 3.53809z"/><path d="m798.09423 441.64006q-6.84375 1.89111-18.39843 4.2461a144.432 144.432 0 0 1 -28.30371 2.35839q-13.68311 0-22.87989-4.00976a37.13457 37.13457 0 0 1 -14.86035-11.32129 45.84149 45.84149 0 0 1 -8.13672-17.69043 98.5593 98.5593 0 0 1 -2.47656-22.87988v-68.40235h15.33105v63.44922a108.31376 108.31376 0 0 0 1.88672 21.93653q1.88526 8.96631 6.13282 14.50586a23.9344 23.9344 0 0 0 10.96777 8.01953 47.63567 47.63567 0 0 0 16.39355 2.47656a131.12918 131.12918 0 0 0 18.86914-1.17969q8.01709-1.17772 10.14258-2.12207v-107.08594h15.332z"/><path d="m834.31982 328.18694q6.83789-1.88526 18.39746-4.2461a144.394 144.394 0 0 1 28.30469-2.35839q13.91456 0 23.2334 4.00976a35.724 35.724 0 0 1 14.85937 11.43945 46.7354 46.7354 0 0 1 7.90235 17.8086 103.528 103.528 0 0 1 2.35839 22.8789v68.167h-15.332v-63.21289a115.49607 115.49607 0 0 0 -1.76855-21.93653 36.64067 36.64067 0 0 0 -5.89649-14.624 22.93876 22.93876 0 0 0 -10.85058-8.1377q-6.72217-2.47558-16.86426-2.47656a129.12386 129.12386 0 0 0 -18.752 1.17969q-7.90576 1.18212-10.26075 2.123v107.085h-15.33103z"/><path d="m978.97607 323.94084h48.58984v12.97266h-48.58984v64.86523a65.85091 65.85091 0 0 0 1.76953 16.86427 23.493 23.493 0 0 0 5.07129 10.02442 16.05181 16.05181 0 0 0 8.01953 4.71777 42.67072 42.67072 0 0 0 10.37793 1.17871q9.66944 0 15.56738-2.24023a67.63988 67.63988 0 0 0 9.19922-4.12793l3.77344 12.7373q-3.30468 2.12256-11.55762 4.835a57.20451 57.20451 0 0 1 -17.92578 2.71289q-11.32178 0-18.9873-2.94824a27.438 27.438 0 0 1 -12.26563-8.96289 36.72953 36.72953 0 0 1 -6.48633-14.97852 104.05734 104.05734 0 0 1 -1.88671-21.22851v-112.27398l15.33105-2.83056z"/><path d="m1146.44287 441.64006q-6.84375 1.89111-18.39844 4.2461a144.432 144.432 0 0 1 -28.30371 2.35839q-13.68311 0-22.87988-4.00976a37.13454 37.13454 0 0 1 -14.86036-11.32129 45.84162 45.84162 0 0 1 -8.13671-17.69043 98.55874 98.55874 0 0 1 -2.47657-22.87988v-68.40235h15.33106v63.44922a108.313 108.313 0 0 0 1.88672 21.93653q1.88524 8.96631 6.13281 14.50586a23.93445 23.93445 0 0 0 10.96777 8.01953 47.63573 47.63573 0 0 0 16.39356 2.47656a131.12928 131.12928 0 0 0 18.86914-1.17969q8.01708-1.17772 10.14258-2.12207v-107.08594h15.332z"/></g></svg>
