<svg width="748" height="128" viewBox="0 0 748 128" fill="none" xmlns="http://www.w3.org/2000/svg">
<rect width="748" height="128" stroke="#0EBAC5" style="stroke:#0EBAC5;stroke:color(display-p3 0.0549 0.7294 0.7725);stroke-opacity:1;"/>
<path fill-rule="evenodd" clip-rule="evenodd" d="M119.171 104.079V95.3282C119.171 94.5821 118.816 93.8839 118.221 93.4361L117.952 93.0826L117.628 92.7993C116.624 92.2293 116.408 92.1074 116.307 92.0578L100.568 83.1021V46.5715L115.631 38.0118C115.631 38.0118 116.686 37.4092 116.741 37.3763C116.774 37.3553 116.795 37.3422 116.816 37.3289C116.852 37.3065 116.887 37.2838 116.981 37.2227L132.659 28.3114L147.729 36.8947C148.58 37.3799 148.886 37.5519 149.022 37.6182L164.753 46.5706V58.4937C164.753 59.344 165.214 60.1298 165.962 60.5554L173.689 64.9506C175.302 65.8685 177.321 64.7226 177.32 62.8887L177.317 43.045C177.326 41.9737 177.042 40.8988 176.498 39.954C175.946 38.9995 175.15 38.2096 174.177 37.6556L173.184 37.0967L154.98 26.7386L153.988 26.1876L136.08 16.0033C135.274 15.4387 134.125 15.0625 132.958 15.0068C131.757 14.9517 130.572 15.2342 129.524 15.828L128.52 16.4134L111.311 26.1913C110.866 26.4405 110.719 26.5228 110.573 26.6053C110.501 26.6459 110.429 26.6866 110.321 26.7473L109.34 27.3125L91.3722 37.5315C90.4506 37.9699 89.5639 38.7717 88.9516 39.7474C88.3325 40.7198 88 41.8512 88 43.0099V64.8369L88.0047 86.6289C87.9941 87.697 88.278 88.772 88.8236 89.7194C89.3753 90.674 90.1736 91.4649 91.1467 92.0177L92.1337 92.5748C104.56 99.6459 110.279 102.9 110.35 102.939L111.339 103.489L115.475 106.102C117.114 107.075 119.171 105.932 119.171 104.079ZM168.379 70.7738C166.766 69.8593 164.751 71.0051 164.751 72.8373V75.0618L124.829 52.3596L123.487 51.5904C122.272 50.9001 120.772 50.9723 119.64 51.7647L118.578 52.3548L112.686 55.6918L110.311 57.0342C108.583 58.0172 108.043 60.1692 109.055 61.8874L110.406 64.1802L111.769 66.4977C112.77 68.1965 114.961 68.7265 116.701 67.7248C119.018 66.4089 119.124 66.3485 119.225 66.2796C119.231 66.2751 119.238 66.2705 119.245 66.2656L121.691 64.8816L126.529 67.6335L126.525 110.368C126.525 112.301 128.117 113.869 130.082 113.869C130.983 113.869 131.844 113.535 132.502 112.935C136.887 109.449 136.891 109.446 137.794 108.728L137.797 108.725C138.722 107.992 139.209 106.857 139.108 105.698L139.115 74.7943L167.826 91.1728C169.615 92.1872 171.621 91.5035 172.987 89.7853L176.629 86.1311C177.071 85.6852 177.318 85.0885 177.318 84.4672V77.2167C177.318 76.3651 176.856 75.5783 176.106 75.1532L168.379 70.7738Z" fill="#0EBAC5" style="fill:#0EBAC5;fill:color(display-p3 0.0549 0.7294 0.7725);fill-opacity:1;"/>
<path fill-rule="evenodd" clip-rule="evenodd" d="M203.09 84.7006C202.637 84.7006 202.241 84.534 201.901 84.2016C201.562 83.8684 201.391 83.4798 201.391 83.0361V39.749C201.391 39.2614 201.562 38.8615 201.901 38.5511C202.241 38.2397 202.637 38.0845 203.09 38.0845H212.602C213.101 38.0845 213.508 38.2397 213.826 38.5511C214.142 38.8615 214.301 39.2614 214.301 39.749V74.2459H234.685C235.182 74.2459 235.602 74.4116 235.941 74.7449C236.281 75.0782 236.451 75.4886 236.451 75.9771V83.0361C236.451 83.5246 236.281 83.9245 235.941 84.235C235.602 84.5454 235.182 84.7006 234.685 84.7006H203.09ZM239.506 84.7007C239.144 84.7007 238.815 84.5569 238.521 84.2674C238.226 83.9789 238.079 83.6571 238.079 83.3019C238.079 83.0362 238.102 82.8362 238.147 82.7029L253.979 40.0157C254.431 38.7283 255.337 38.0846 256.696 38.0846H267.296C268.654 38.0846 269.56 38.7283 270.013 40.0157L285.845 82.7029C285.89 82.8362 285.913 83.0362 285.913 83.3019C285.913 83.6571 285.765 83.9789 285.471 84.2674C285.176 84.5569 284.848 84.7007 284.486 84.7007H275.652C274.566 84.7007 273.795 84.2122 273.343 83.2352L270.896 76.7761H253.096L250.649 83.2352C250.196 84.2122 249.426 84.7007 248.339 84.7007H239.506ZM255.95 66.7863H268.044L261.997 49.804L255.95 66.7863ZM292.844 84.7007C292.346 84.7007 291.927 84.5455 291.587 84.2351C291.248 83.9247 291.078 83.5247 291.078 83.0362V39.8158C291.078 39.3282 291.248 38.9168 291.587 38.5845C291.927 38.2512 292.346 38.0846 292.844 38.0846H300.523C301.654 38.0846 302.471 38.5731 302.968 39.5491L314.655 60.0605L326.41 39.5491C326.907 38.5731 327.723 38.0846 328.855 38.0846H336.533C337.032 38.0846 337.45 38.2512 337.79 38.5845C338.13 38.9168 338.3 39.3282 338.3 39.8158V83.0362C338.3 83.5247 338.13 83.9247 337.79 84.2351C337.45 84.5455 337.032 84.7007 336.533 84.7007H327.904C327.451 84.7007 327.055 84.5341 326.715 84.2018C326.376 83.8685 326.206 83.48 326.206 83.0362V58.7949L318.868 71.9816C318.279 73.0024 317.486 73.5128 316.489 73.5128H312.821C311.914 73.5128 311.121 73.0024 310.442 71.9816L303.172 58.7949V83.0362C303.172 83.5247 303.002 83.9247 302.663 84.2351C302.323 84.5455 301.904 84.7007 301.406 84.7007H292.844ZM349.238 84.7007C348.785 84.7007 348.389 84.5341 348.05 84.2017C347.71 83.8685 347.54 83.4799 347.54 83.0362V39.8157C347.54 39.3282 347.698 38.9168 348.015 38.5845C348.332 38.2512 348.74 38.0846 349.238 38.0846H370.233C375.986 38.0846 380.266 39.2387 383.075 41.5479C385.883 43.8561 387.288 47.1414 387.288 51.4036C387.288 53.5347 386.71 55.3773 385.556 56.9304C384.4 58.4845 383.12 59.6167 381.716 60.3271C383.574 61.126 385.136 62.4468 386.405 64.2894C387.673 66.132 388.307 68.2079 388.307 70.5161C388.307 74.9993 386.8 78.4854 383.788 80.9717C380.776 83.4571 376.462 84.7007 370.844 84.7007H349.238ZM368.807 56.5297C370.483 56.5297 371.774 56.086 372.68 55.1975C373.586 54.3091 374.04 53.1559 374.04 51.7352C374.04 50.3582 373.598 49.2374 372.714 48.3718C371.831 47.5053 370.528 47.073 368.807 47.073H360.314V56.5297H368.807ZM369.419 75.7093C371.185 75.7093 372.556 75.2093 373.53 74.2104C374.503 73.2125 374.991 71.9803 374.991 70.5148C374.991 69.0055 374.492 67.7514 373.496 66.7515C372.499 65.7536 371.14 65.2536 369.419 65.2536H360.314V75.7093H369.419ZM397.279 84.7007C396.825 84.7007 396.43 84.5341 396.09 84.2017C395.75 83.8685 395.58 83.4799 395.58 83.0362V39.8157C395.58 39.3282 395.739 38.9168 396.056 38.5845C396.372 38.2512 396.78 38.0846 397.279 38.0846H415.149C421.852 38.0846 427.061 39.6491 430.776 42.7801C434.489 45.9092 436.438 50.4047 436.618 56.2648C436.664 57.5522 436.687 59.2615 436.687 61.3926C436.687 63.5238 436.664 65.2102 436.618 66.4538C436.165 78.6178 429.122 84.7007 415.488 84.7007H397.279ZM415.147 74.7102C418 74.7102 420.106 74.0446 421.466 72.7124C422.824 71.3811 423.549 69.2491 423.639 66.319C423.731 65.0316 423.775 63.3671 423.775 61.3245C423.775 59.2819 423.731 57.6393 423.639 56.3966C423.549 53.5551 422.767 51.4573 421.296 50.1033C419.823 48.7492 417.661 48.0721 414.807 48.0721H408.352V74.7102H415.147ZM441.78 84.7007C441.418 84.7007 441.089 84.5569 440.795 84.2674C440.5 83.9789 440.353 83.6571 440.353 83.3019C440.353 83.0362 440.375 82.8362 440.421 82.7029L456.252 40.0157C456.705 38.7283 457.612 38.0846 458.97 38.0846H469.57C470.929 38.0846 471.834 38.7283 472.287 40.0157L488.119 82.7029C488.164 82.8362 488.186 83.0362 488.186 83.3019C488.186 83.6571 488.039 83.9789 487.745 84.2674C487.451 84.5569 487.123 84.7007 486.759 84.7007H477.927C476.84 84.7007 476.069 84.2122 475.617 83.2352L473.17 76.7761H455.368L452.922 83.2352C452.47 84.2122 451.701 84.7007 450.614 84.7007H441.78ZM458.223 66.7864H470.316L464.27 49.8041L458.223 66.7864Z" fill="#0EBAC5" style="fill:#0EBAC5;fill:color(display-p3 0.0549 0.7294 0.7725);fill-opacity:1;"/>
<path fill-rule="evenodd" clip-rule="evenodd" d="M502.3 85.365C501.802 85.365 501.384 85.2098 501.043 84.8993C500.703 84.5889 500.534 84.189 500.534 83.7005V49.6035H488.576C488.077 49.6035 487.659 49.4483 487.319 49.1378C486.979 48.8264 486.809 48.4275 486.809 47.9389V40.48C486.809 39.9925 486.979 39.5811 487.319 39.2488C487.659 38.9155 488.077 38.7488 488.576 38.7488H525.47C525.967 38.7488 526.387 38.9155 526.727 39.2488C527.066 39.5811 527.236 39.9925 527.236 40.48V47.9389C527.236 48.4275 527.066 48.8264 526.727 49.1378C526.387 49.4483 525.967 49.6035 525.47 49.6035H513.511V83.7005C513.511 84.189 513.341 84.5889 513.002 84.8993C512.662 85.2098 512.243 85.365 511.746 85.365H502.3ZM534.911 85.365C534.459 85.365 534.062 85.1984 533.723 84.8661C533.383 84.5328 533.213 84.1443 533.213 83.7005V40.4801C533.213 39.9925 533.371 39.5812 533.689 39.2488C534.007 38.9155 534.414 38.7489 534.911 38.7489H566.981C567.48 38.7489 567.898 38.9155 568.238 39.2488C568.579 39.5812 568.749 39.9925 568.749 40.4801V47.0734C568.749 47.5619 568.579 47.9609 568.238 48.2713C567.898 48.5827 567.48 48.7379 566.981 48.7379H545.512V57.1958H565.487C565.985 57.1958 566.403 57.3624 566.744 57.6947C567.084 58.028 567.253 58.4384 567.253 58.9269V64.987C567.253 65.4755 567.084 65.8859 566.744 66.2192C566.403 66.5516 565.985 66.7192 565.487 66.7192H545.512V75.376H567.525C568.023 75.376 568.443 75.5426 568.783 75.875C569.122 76.2083 569.292 76.6187 569.292 77.1072V83.7005C569.292 84.189 569.122 84.589 568.783 84.8994C568.443 85.2098 568.023 85.365 567.525 85.365H534.911ZM594.838 86.0318C590.446 86.0318 586.708 85.411 583.627 84.1673C580.547 82.9247 578.215 81.2821 576.629 79.2385C575.044 77.1979 574.206 74.9772 574.116 72.5795C574.116 72.1805 574.262 71.8472 574.557 71.5806C574.851 71.3149 575.202 71.1816 575.61 71.1816H584.646C585.19 71.1816 585.632 71.2702 585.972 71.4482C586.312 71.6253 586.685 71.9358 587.093 72.3795C587.682 73.4451 588.599 74.3221 589.844 75.0106C591.091 75.699 592.754 76.0428 594.838 76.0428C597.285 76.0428 599.164 75.6762 600.478 74.9449C601.791 74.2116 602.448 73.2023 602.448 71.9139C602.448 70.9826 602.108 70.216 601.429 69.6171C600.75 69.0172 599.663 68.4839 598.169 68.0182C596.673 67.5526 594.521 67.0308 591.713 66.4537C586.233 65.3882 582.133 63.7674 579.415 61.5916C576.697 59.4166 575.339 56.3085 575.339 52.2691C575.339 49.5162 576.119 47.0632 577.682 44.9102C579.245 42.7562 581.465 41.0812 584.34 39.8823C587.217 38.6834 590.558 38.0845 594.363 38.0845C598.348 38.0845 601.803 38.7615 604.725 40.1147C607.646 41.4697 609.888 43.1561 611.452 45.1758C613.014 47.1965 613.841 49.1829 613.931 51.1369C613.931 51.5359 613.795 51.8806 613.523 52.1691C613.251 52.4576 612.912 52.6014 612.505 52.6014H602.992C601.995 52.6014 601.225 52.2024 600.682 51.4026C600.409 50.4703 599.708 49.6828 598.576 49.0391C597.444 48.3954 596.039 48.0735 594.363 48.0735C592.461 48.0735 590.988 48.4068 589.946 49.0724C588.905 49.738 588.383 50.715 588.383 52.0025C588.383 53.2899 589.064 54.3002 590.422 55.0325C591.782 55.7657 594.318 56.5085 598.032 57.2636C602.29 58.0178 605.676 58.9615 608.189 60.0937C610.704 61.2249 612.56 62.6914 613.761 64.4883C614.962 66.2871 615.561 68.5629 615.561 71.3149C615.561 74.3335 614.678 76.9532 612.912 79.1728C611.146 81.3925 608.699 83.0904 605.574 84.2673C602.448 85.4443 598.869 86.0318 594.838 86.0318ZM634.317 85.365C633.818 85.365 633.398 85.2098 633.059 84.8993C632.719 84.5889 632.549 84.189 632.549 83.7005V49.6035H620.592C620.093 49.6035 619.675 49.4483 619.335 49.1378C618.995 48.8264 618.826 48.4275 618.826 47.9389V40.48C618.826 39.9925 618.995 39.5811 619.335 39.2488C619.675 38.9155 620.093 38.7488 620.592 38.7488H657.485C657.984 38.7488 658.403 38.9155 658.742 39.2488C659.083 39.5811 659.253 39.9925 659.253 40.48V47.9389C659.253 48.4275 659.083 48.8264 658.742 49.1378C658.403 49.4483 657.984 49.6035 657.485 49.6035H645.527V83.7005C645.527 84.189 645.357 84.5889 645.017 84.8993C644.678 85.2098 644.26 85.365 643.762 85.365H634.317Z" fill="#0EBAC5" style="fill:#0EBAC5;fill:color(display-p3 0.0549 0.7294 0.7725);fill-opacity:1;"/>
</svg>
